<?xml version="1.0" encoding="utf-8"?>
<!-- Generator: Adobe Illustrator 25.0.1, SVG Export Plug-In . SVG Version: 6.00 Build 0)  -->
<svg version="1.1" id="Layer_1" xmlns="http://www.w3.org/2000/svg" xmlns:xlink="http://www.w3.org/1999/xlink" x="0px" y="0px"
	 viewBox="0 0 2400 621" style="enable-background:new 0 0 2400 621;" xml:space="preserve">
<style type="text/css">
	.st0{fill:none;stroke:url(#SVGID_1_);stroke-width:13.4044;stroke-miterlimit:10;}
	.st1{fill:#EB695A;}
	.st2{fill:none;stroke:url(#SVGID_2_);stroke-width:1.8026;stroke-miterlimit:10;}
</style>
<g>
	<linearGradient id="SVGID_1_" gradientUnits="userSpaceOnUse" x1="6.0634" y1="188.2894" x2="2394.3831" y2="188.2894">
		<stop  offset="0.3803" style="stop-color:#EB695A"/>
		<stop  offset="0.4501" style="stop-color:#D59A8A"/>
		<stop  offset="0.4851" style="stop-color:#CAAA9F"/>
		<stop  offset="0.4874" style="stop-color:#C2B3AD"/>
		<stop  offset="0.4925" style="stop-color:#ACC2C8"/>
		<stop  offset="0.4969" style="stop-color:#9BC9D8"/>
		<stop  offset="0.4999" style="stop-color:#94CCDD"/>
		<stop  offset="0.5316" style="stop-color:#94CCDD"/>
		<stop  offset="0.5528" style="stop-color:#059AB5"/>
		<stop  offset="1" style="stop-color:#007E8D"/>
	</linearGradient>
	<path class="st0" d="M456.4,84.9H180.8c-83.5,0-93.7,36.7-93.7,103.4c0,66.7,10.2,102.9,93.7,102.9h275.6v71.3H180.8
		c-125.3,0-168.1-59.6-168.1-174.2S55.6,14.1,180.8,14.1h275.6V84.9z M496.4,14.1l107,128.9c10.7,13.2,24.5,26.5,34.6,44.3
		c10.2-17.8,23.9-31.1,35.2-44.3l107-128.9h105.9L713.9,202.1c-11.2,12.2-39.2,39.7-39.2,60.6v99.8h-72.8v-99.8
		c0-21.4-28.5-48.9-39.2-60.6L390.5,14.1H496.4z M1180.6,184.7c47.9,13.7,68.8,43.8,68.8,83.5c0,55-39.7,94.2-136,94.2H808.2V14.1
		h306.8c125.8,0,133.9,66.2,133.9,92.2C1249,150.1,1216.2,173.5,1180.6,184.7z M1116.6,153.2c39.7,0,58.6-12.7,58.6-36.7
		c0-22.4-16.3-38.2-53.4-38.2H878.5v74.9H1116.6z M878.5,215.3v82h241.7c42.8,0,56.5-19.4,56.5-38.7c0-19.3-13.8-43.3-61.6-43.3
		H878.5z M1657.1,188.3c0,135-78.4,179.3-244.5,179.3c-166,0-244.5-44.3-244.5-179.3c0-135,78.4-179.3,244.5-179.3
		C1578.7,9,1657.1,53.3,1657.1,188.3z M1582.8,188.3c0-97.3-56-110.5-170.1-110.5c-114.1,0-170.1,13.2-170.1,110.5
		s56,110.5,170.1,110.5C1526.7,298.8,1582.8,285.6,1582.8,188.3z M1583.2,14.1h300.2c85.6,0,138.6,38.7,138.6,108.5
		c0,48.9-21.9,79.9-64.3,92.2c40.6,13.4,58.9,42.8,58.9,79v68.8h-75.4v-70.3c0-19.3-10.7-44.3-57.1-44.3H1656v114.6h-72.8V14.1z
		 M1889.7,183.2c44.8,0,58.5-29.5,58.5-52.5c0-22.9-13.7-52.5-58.5-52.5h-233.6v104.9H1889.7z M2387.7,172.5v190h-276.1
		c-124.8,0-167.6-60.1-167.6-174.7c0-114.1,42.8-173.7,167.6-173.7h272v70.8h-272c-83,0-93.2,36.2-93.2,102.9
		c0,67.2,10.2,103.4,93.2,103.4h203.2V172.5H2387.7z"/>
	<g>
		<path class="st1" d="M19.8,606.5v-90.7h13.8v78.3h43.7v12.4H19.8z"/>
		<path class="st1" d="M104.2,606.5v-90.7H118v90.7H104.2z"/>
		<path class="st1" d="M207.5,606.5L182,561.8l-15.3,18.3v26.4H153v-90.7h13.8v45.6l37.1-45.6h16.8l-29.4,35.5l32.5,55.1H207.5z"/>
		<path class="st1" d="M248.1,606.5v-90.7H306v12.4h-44.2v26.5h37.7v12.2h-37.7v27.2H306v12.4H248.1z"/>
		<path class="st1" d="M430.2,606.5l-6.2-18.2h-35.8l-6.2,18.2h-14.6l33.2-90.7h11.1l33.2,90.7H430.2z M406.4,536.4l-14.1,40.2h27.9
			L406.4,536.4z"/>
		<path class="st1" d="M524.7,606.5l-41.9-63.8v63.8H469v-90.7h12.6l41.9,63.7v-63.7h13.8v90.7H524.7z"/>
		<path class="st1" d="M602,569.2v37.3h-13.8v-37.3l-27.1-53.4h15l19,39.9l19-39.9h15L602,569.2z"/>
		<path class="st1" d="M718.9,607.3c-13.6,0-23.4-3.2-32.1-12l9.2-9c6.6,6.6,13.9,8.7,23.2,8.7c11.8,0,18.7-5.1,18.7-13.9
			c0-3.9-1.1-7.3-3.6-9.4c-2.3-2.2-4.6-3.1-9.9-3.8l-10.7-1.5c-7.4-1-13.2-3.6-17.2-7.3c-4.5-4.2-6.6-9.9-6.6-17.3
			c0-15.8,11.5-26.6,30.3-26.6c12,0,20.4,3.1,28.1,10.3l-8.8,8.7c-5.6-5.3-12.1-7-19.7-7c-10.7,0-16.6,6.1-16.6,14.1
			c0,3.3,1,6.2,3.4,8.4c2.3,2,6,3.6,10.2,4.2l10.3,1.5c8.4,1.3,13.1,3.3,16.9,6.7c5,4.3,7.4,10.8,7.4,18.6
			C751.5,597.4,737.9,607.3,718.9,607.3z"/>
		<path class="st1" d="M812,528.2v78.3h-13.8v-78.3h-25v-12.4h63.7v12.4H812z"/>
		<path class="st1" d="M914.6,597.6c-6.2,6.2-14.3,9.7-23.9,9.7c-9.7,0-17.6-3.4-23.8-9.7c-8.9-8.9-8.8-19-8.8-36.4
			c0-17.4-0.1-27.5,8.8-36.4c6.2-6.2,14.1-9.7,23.8-9.7c9.7,0,17.7,3.4,23.9,9.7c8.9,8.9,8.7,19,8.7,36.4
			C923.3,578.7,923.5,588.7,914.6,597.6z M904.2,533.1c-3.2-3.4-8.1-5.6-13.5-5.6c-5.3,0-10.3,2.2-13.5,5.6
			c-4.5,4.8-5.3,9.9-5.3,28.1s0.9,23.3,5.3,28.1c3.2,3.4,8.1,5.6,13.5,5.6c5.3,0,10.3-2.2,13.5-5.6c4.5-4.8,5.3-9.9,5.3-28.1
			S908.6,537.9,904.2,533.1z"/>
		<path class="st1" d="M1005,606.5l-19.1-38.2h-17.2v38.2H955v-90.7h35.1c17.2,0,28.1,11.1,28.1,26.5c0,13-7.9,21.3-18.1,24.1
			l20.9,40.1H1005z M989.1,528.2h-20.4v28.4h20.4c9.2,0,15.4-5.2,15.4-14.1C1004.5,533.6,998.3,528.2,989.1,528.2z"/>
		<path class="st1" d="M1049.7,606.5v-90.7h57.9v12.4h-44.2v26.5h37.7v12.2h-37.7v27.2h44.2v12.4H1049.7z"/>
		<path class="st1" d="M1176.4,577.3v-12.1h37.2v12.1H1176.4z"/>
		<path class="st1" d="M1323.9,606.5h-36.7v-90.7h35.3c16.8,0,27.4,9.5,27.4,24.8c0,9.8-6.1,16.8-12.2,19.2c7,2.8,13.6,9.5,13.6,21
			C1351.3,597.6,1339.9,606.5,1323.9,606.5z M1321.3,528.2H1301v26h20.4c8.8,0,14.8-4.6,14.8-13
			C1336.1,532.8,1330.1,528.2,1321.3,528.2z M1322.6,566.6H1301v27.6h21.6c9.5,0,14.9-5.9,14.9-13.9
			C1337.5,572.3,1332.2,566.6,1322.6,566.6z"/>
		<path class="st1" d="M1414,607.3c-18.5,0-32.5-12.6-32.5-31.3v-60.1h13.8v59.5c0,12.1,7.4,19.6,18.7,19.6
			c11.3,0,18.8-7.5,18.8-19.6v-59.5h13.8V576C1446.6,594.7,1432.5,607.3,1414,607.3z"/>
		<path class="st1" d="M1510.9,528.2v78.3h-13.8v-78.3h-25v-12.4h63.7v12.4H1510.9z"/>
		<path class="st1" d="M1662.1,610.6l-9-9c-5.2,3.7-11.8,5.7-19,5.7c-9.7,0-17.6-3.4-23.8-9.7c-8.9-8.9-8.8-19-8.8-36.4
			c0-17.4-0.1-27.5,8.8-36.4c6.2-6.2,14.1-9.7,23.8-9.7s17.7,3.4,23.9,9.7c8.9,8.9,8.7,19,8.7,36.4c0,15.4,0.1,24.8-5.9,33l8.9,8.8
			L1662.1,610.6z M1647.6,533.1c-3.2-3.4-8.1-5.6-13.5-5.6c-5.3,0-10.3,2.2-13.5,5.6c-4.5,4.8-5.3,9.9-5.3,28.1s0.9,23.3,5.3,28.1
			c3.2,3.4,8.1,5.6,13.5,5.6c3.4,0,6.6-1,9.3-2.9l-9.6-9.5l7.6-7.6l8.8,8.8c2.3-4.6,2.7-10.7,2.7-22.4
			C1652.9,543,1652,537.9,1647.6,533.1z"/>
		<path class="st1" d="M1729.5,607.3c-18.5,0-32.5-12.6-32.5-31.3v-60.1h13.8v59.5c0,12.1,7.4,19.6,18.7,19.6
			c11.3,0,18.8-7.5,18.8-19.6v-59.5h13.8V576C1762.1,594.7,1747.9,607.3,1729.5,607.3z"/>
		<path class="st1" d="M1795.7,606.5v-90.7h57.9v12.4h-44.2v26.5h37.7v12.2h-37.7v27.2h44.2v12.4H1795.7z"/>
		<path class="st1" d="M1914.9,607.3c-18.5,0-32.5-12.6-32.5-31.3v-60.1h13.8v59.5c0,12.1,7.4,19.6,18.7,19.6
			c11.3,0,18.8-7.5,18.8-19.6v-59.5h13.8V576C1947.5,594.7,1933.3,607.3,1914.9,607.3z"/>
		<path class="st1" d="M1981.1,606.5v-90.7h57.9v12.4h-44.2v26.5h37.7v12.2h-37.7v27.2h44.2v12.4H1981.1z"/>
		<path class="st1" d="M2069.2,606.5v-90.7h13.8v78.3h43.7v12.4H2069.2z"/>
		<path class="st1" d="M2153.6,606.5v-90.7h57.9v12.4h-44.2v26.5h37.7v12.2h-37.7v27.2h44.2v12.4H2153.6z"/>
		<path class="st1" d="M2265.8,607.3c-13.6,0-23.4-3.2-32.1-12l9.2-9c6.6,6.6,13.9,8.7,23.2,8.7c11.8,0,18.7-5.1,18.7-13.9
			c0-3.9-1.1-7.3-3.6-9.4c-2.3-2.2-4.6-3.1-9.9-3.8l-10.7-1.5c-7.4-1-13.2-3.6-17.2-7.3c-4.5-4.2-6.6-9.9-6.6-17.3
			c0-15.8,11.5-26.6,30.3-26.6c12,0,20.4,3.1,28.1,10.3l-8.8,8.7c-5.6-5.3-12.1-7-19.7-7c-10.7,0-16.6,6.1-16.6,14.1
			c0,3.3,1,6.2,3.4,8.4c2.3,2,6,3.6,10.2,4.2l10.3,1.5c8.4,1.3,13.1,3.3,16.9,6.7c5,4.3,7.4,10.8,7.4,18.6
			C2298.4,597.4,2284.8,607.3,2265.8,607.3z"/>
		<path class="st1" d="M2351.5,607.3c-13.6,0-23.4-3.2-32.1-12l9.2-9c6.6,6.6,13.9,8.7,23.2,8.7c11.8,0,18.7-5.1,18.7-13.9
			c0-3.9-1.1-7.3-3.6-9.4c-2.3-2.2-4.6-3.1-9.9-3.8l-10.7-1.5c-7.4-1-13.2-3.6-17.2-7.3c-4.5-4.2-6.6-9.9-6.6-17.3
			c0-15.8,11.5-26.6,30.3-26.6c12,0,20.4,3.1,28.1,10.3l-8.8,8.7c-5.6-5.3-12.1-7-19.7-7c-10.7,0-16.6,6.1-16.6,14.1
			c0,3.3,1,6.2,3.4,8.4c2.3,2,6,3.6,10.2,4.2l10.3,1.5c8.4,1.3,13.1,3.3,16.9,6.7c5,4.3,7.4,10.8,7.4,18.6
			C2384.1,597.4,2370.5,607.3,2351.5,607.3z"/>
	</g>
</g>
</svg>
